<?xml version="1.0" encoding="utf-8"?>
<!-- Generator: Adobe Illustrator 23.0.1, SVG Export Plug-In . SVG Version: 6.00 Build 0)  -->
<svg version="1.1" id="Layer_1" xmlns="http://www.w3.org/2000/svg" xmlns:xlink="http://www.w3.org/1999/xlink" x="0px" y="0px"
	 viewBox="0 0 1366 768" style="enable-background:new 0 0 1366 768;" xml:space="preserve">
<style type="text/css">
	.st0{fill:none;stroke:#000000;stroke-miterlimit:10;}
	.st1{enable-background:new    ;}
</style>
<g>
	<g>
		<path d="M224.17,213.74"/>
		<path d="M434.66,385.01c0,0.79,0.43,1.22,1.23,1.22c1.47,0,3.68-0.85,6.74-2.62c3-1.71,6.44-3.89,10.3-6.58
			c3.86-2.68,7.97-5.66,12.26-8.95c4.29-3.35,8.34-6.52,12.26-9.68c3.86-3.11,7.36-6.03,10.55-8.65c3.13-2.68,5.52-4.63,7.11-5.97
			c1.23,1.22,2.64,2.74,4.29,4.57c1.66,1.89,3.25,3.6,4.72,5.18c-2.94,2.92-6.68,6.46-11.16,10.54c-4.48,4.14-9.38,8.4-14.65,12.85
			c-5.27,4.45-10.79,8.83-16.43,13.15c-5.7,4.32-11.22,8.17-16.56,11.57c-5.33,3.41-10.36,6.15-15.02,8.28
			c-4.66,2.14-8.58,3.17-11.65,3.17c-2.27,0-4.84-0.67-7.6-2.07c-2.82-1.4-5.46-3.17-7.91-5.36c-2.45-2.2-4.54-4.63-6.19-7.25
			c-1.66-2.68-2.51-5.18-2.51-7.55c0-2.14,0.8-6.21,2.39-12.18s3.56-12.97,5.82-20.95c-6.01,8.1-11.9,15.23-17.66,21.44
			c-5.76,6.15-11.04,11.45-15.82,15.83s-9.01,7.92-12.63,10.66s-6.32,4.69-8.03,5.91c-1.04,0.67-2.33,1.15-3.8,1.52
			c-1.47,0.31-2.82,0.49-3.99,0.49c-2.51,0-5.33-0.79-8.4-2.31c-3.07-1.52-5.89-3.41-8.52-5.66c-2.58-2.25-4.84-4.81-6.62-7.55
			c-1.78-2.8-2.7-5.42-2.7-7.98c0-2.92,0.98-7.8,2.88-14.55c1.96-6.76,4.54-14.86,7.85-24.3c3.25-9.44,7.11-19.98,11.53-31.67
			s9.14-24,14.23-36.91c0.25-0.67,0.49-0.97,0.67-0.91c0.18,0.06,0.55,0.12,1.1,0.12c2.51,0.43,6.01,1.4,10.42,3.11
			c4.41,1.65,8.71,3.47,12.94,5.48c4.23,2.01,7.85,3.89,10.91,5.66c3.07,1.77,4.6,3.05,4.6,3.72c-0.43,0.91-1.41,3.11-3.13,6.58
			c-1.66,3.47-3.62,7.61-5.82,12.49c-2.21,4.88-4.54,10.11-6.99,15.77c-2.45,5.66-4.72,11.09-6.81,16.26
			c-2.08,5.18-3.8,9.86-5.09,14.07c-1.35,4.2-2.02,7.25-2.02,9.26c0,0.55,0.25,0.79,0.8,0.79c1.04,0,3.43-1.4,7.05-4.26
			s8.03-7.37,13.37-13.46c5.27-6.09,11.28-14.01,17.97-23.63c6.68-9.63,13.61-21.26,20.85-34.78l5.64-15.77
			c0.43-1.03,1.29-1.58,2.64-1.58c0.92,0,2.94,0.91,6.13,2.68c3.13,1.77,6.5,3.83,10.06,6.15c3.56,2.31,6.74,4.63,9.5,7
			c2.82,2.31,4.35,3.96,4.6,4.88c0,0.43-0.06,1.09-0.18,2.07c-0.12,0.97-0.31,1.83-0.61,2.49c-1.35,3.6-2.88,7.8-4.6,12.66
			c-1.72,4.87-3.49,9.92-5.33,15.17c-1.78,5.23-3.56,10.54-5.33,15.83c-1.72,5.29-3.31,10.29-4.72,14.86s-2.58,8.65-3.43,12.18
			C435.09,380.87,434.66,383.42,434.66,385.01z"/>
		<path d="M548.77,306.26c-1.59,4.14-3.19,8.4-4.84,12.79c-1.59,4.38-3.13,8.83-4.6,13.34c8.4-9.99,15.39-17.97,20.97-23.94
			c5.52-5.97,10.18-10.66,13.86-13.95c3.68-3.29,6.74-5.66,9.14-7c2.4-1.34,4.6-2.31,6.62-2.98c1.23,0,3.25,0.67,6.13,2.01
			c2.88,1.34,5.95,2.98,9.2,4.88c3.25,1.95,6.38,3.89,9.32,5.97c2.94,2.07,5.03,3.77,6.19,5.06c1.04,1.03,1.23,2.62,0.43,4.57
			c-1.59,4.26-3.19,8.52-4.72,12.85c-1.53,4.32-3.07,8.77-4.54,13.28c8.95-10.23,16.43-18.46,22.44-24.6
			c6.01-6.15,10.91-10.91,14.72-14.25c3.8-3.29,6.81-5.54,8.95-6.58c2.15-1.03,3.8-1.58,5.03-1.58c1.72,0,4.35,0.85,7.85,2.62
			c3.49,1.71,6.99,3.83,10.55,6.4c3.56,2.49,6.62,5.12,9.2,7.8s3.92,5,3.92,7c0,0.43-0.06,0.91-0.18,1.52
			c-0.12,0.61-0.31,1.34-0.61,2.31c-1.04,3.35-2.45,7.25-4.11,11.75c-1.66,4.51-3.43,9.2-5.33,14.07c-1.9,4.88-3.74,9.68-5.64,14.55
			c-1.9,4.88-3.56,9.38-5.03,13.64c-1.47,4.26-2.7,7.98-3.62,11.15s-1.41,5.54-1.41,7c0,0.79,0.43,1.22,1.23,1.22
			c1.47,0,3.68-0.85,6.62-2.62c2.94-1.71,6.32-3.96,10.12-6.76s7.79-5.85,11.96-9.2c4.17-3.35,8.15-6.64,11.96-9.86
			c3.8-3.23,7.24-6.21,10.36-8.89c3.07-2.68,5.4-4.63,7.05-5.97c1.23,1.22,2.64,2.74,4.29,4.57c1.66,1.89,3.25,3.6,4.72,5.18
			c-2.94,2.92-6.62,6.46-11.04,10.66c-4.41,4.2-9.2,8.46-14.35,12.85c-5.15,4.38-10.48,8.77-16.06,13.15s-10.91,8.28-16.13,11.75
			c-5.21,3.47-10.12,6.28-14.65,8.4c-4.53,2.13-8.4,3.17-11.65,3.17c-2.02,0-4.54-0.67-7.6-2.07c-3.07-1.4-6.01-3.11-8.83-5.18
			s-5.21-4.32-7.24-6.88c-2.02-2.49-3-5-3-7.37c1.23-5.42,2.82-11.63,4.84-18.52s4.23-14.01,6.62-21.26
			c2.39-7.25,4.91-14.37,7.54-21.44c2.58-7.06,5.09-13.58,7.54-19.55c-2.7,3.17-6.19,7.06-10.61,11.57
			c-4.41,4.51-9.44,10.48-15.02,17.85c-5.64,7.37-11.65,16.51-18.03,27.41c-6.44,10.91-12.81,24.18-19.25,39.89
			c-0.8,2.68-2.76,3.96-5.82,3.96c-1.59,0-3.56-0.31-5.95-0.91c-2.33-0.61-4.84-1.52-7.42-2.8c-2.64-1.28-5.27-2.8-8.03-4.69
			s-5.33-4.14-7.73-6.76c0-0.91,0.49-3.77,1.53-8.46c0.98-4.69,2.45-10.72,4.41-18.03c1.96-7.31,4.23-15.47,6.93-24.54
			c2.7-9.01,5.7-18.34,9.01-27.89c-3.19,3.47-7.24,7.86-12.02,13.28c-4.84,5.36-9.99,11.88-15.45,19.55
			c-5.46,7.61-11.1,16.51-16.86,26.61s-11.16,21.57-16.25,34.29c-0.8,2.8-2.7,4.2-5.64,4.2c-2.27,0-4.84-0.61-7.73-1.89
			c-2.88-1.28-5.82-2.92-8.83-5c-3-2.07-6.01-4.38-9.01-6.88c-3-2.49-5.7-5.06-8.09-7.55c0-0.79,0.37-3.05,1.1-6.76
			c0.74-3.72,1.78-8.4,3.13-14.07c1.35-5.66,3-12.12,4.91-19.37c1.96-7.25,4.17-14.86,6.74-22.84c2.51-7.98,5.33-16.14,8.4-24.43
			c3.07-8.28,6.38-16.32,9.81-24c5.64,2.68,11.9,5.91,18.76,9.74C536.75,296.58,543.06,301.09,548.77,306.26z"/>
		<path d="M840.44,385.01c0,0.79,0.43,1.22,1.23,1.22c1.23,0,3.19-0.85,6.01-2.62c2.82-1.71,6.01-3.89,9.63-6.58
			c3.62-2.68,7.48-5.66,11.53-8.95c4.11-3.35,7.97-6.58,11.71-9.74c3.74-3.17,7.11-6.09,10.12-8.77c3-2.68,5.33-4.69,6.93-6.15
			c1.23,1.22,2.7,2.8,4.54,4.81c1.78,2.01,3.43,3.77,4.91,5.36c-3.19,2.92-7.05,6.46-11.53,10.66c-4.48,4.2-9.32,8.52-14.47,13.03
			c-5.15,4.51-10.48,9.01-15.94,13.46c-5.46,4.45-10.85,8.4-16.06,11.88c-5.21,3.47-10.18,6.28-14.84,8.46
			c-4.66,2.2-8.77,3.29-12.26,3.29c-2.39,0-5.03-0.49-7.91-1.4c-2.88-0.91-5.52-2.25-7.91-3.89c-2.39-1.65-4.41-3.6-6.01-5.91
			c-1.59-2.25-2.39-4.81-2.39-7.55c0-1.03-0.06-2.37-0.12-3.89c-0.06-1.52,0-3.54,0.31-5.97c0.25-2.43,0.8-5.42,1.59-8.95
			c0.8-3.54,2.02-7.86,3.62-13.03c-4.41,4.63-9.63,9.51-15.57,14.55c-5.95,5.06-12.2,9.86-18.76,14.37
			c-6.56,4.51-13.12,8.59-19.74,12.24c-6.62,3.66-12.75,6.4-18.33,8.28c-0.67,0.25-1.23,0.43-1.59,0.43c-0.37,0-0.8,0-1.23,0
			c-1.35,0-3.13-0.67-5.33-2.01c-2.2-1.34-4.35-3.11-6.5-5.29c-2.15-2.19-3.99-4.69-5.52-7.49s-2.33-5.6-2.33-8.4
			c0-0.79,0.43-3.47,1.23-7.98s2.7-10.29,5.7-17.23c3-7,7.48-14.8,13.37-23.51c5.89-8.71,13.92-17.66,24.1-26.8
			c5.21-4.63,10.85-9.01,16.86-13.15c5.09-3.47,10.91-7,17.47-10.54c6.56-3.6,13.43-6.46,20.66-8.59c0.25,0,0.49-0.06,0.67-0.18
			c0.18-0.12,0.49-0.06,0.92,0.18c1.59,0.55,3.49,1.34,5.7,2.49s4.41,2.31,6.62,3.6c2.21,1.28,4.17,2.49,5.82,3.77
			c1.66,1.28,2.76,2.31,3.31,3.11c0.12,0.25,0.12,0.49,0,0.61l-0.43,0.43c-6.01,3.17-11.71,6.76-17.05,10.66
			c-5.33,3.89-10.12,7.61-14.23,11.09c-4.84,4.14-9.32,8.17-13.43,12.18c-9.75,9.57-16.49,17.85-20.23,24.85s-5.64,12-5.64,15.04
			c0,2.25,0.92,3.41,2.82,3.41s4.23-0.79,7.11-2.31s6.13-3.6,9.75-6.15c3.62-2.62,7.6-5.66,11.96-9.2
			c4.35-3.54,8.83-7.19,13.55-11.09c4.17-3.35,8.15-6.88,12.02-10.78c3.31-3.17,6.81-6.82,10.42-10.97
			c3.62-4.14,6.68-8.28,9.2-12.55c0-0.12,0.06-0.25,0.18-0.43c0.12-0.12,0.31-0.12,0.61,0c1.47,1.03,3.13,2.8,5.03,5.29
			c1.9,2.43,3.62,5.18,5.21,8.1c1.59,2.92,2.94,5.72,4.11,8.46c1.16,2.74,1.72,4.81,1.72,6.28c-3.07,6.28-5.46,11.94-7.11,17.06
			c-1.66,5.12-2.94,9.63-3.8,13.46c-0.86,3.83-1.41,7.12-1.59,9.86C840.56,381.47,840.44,383.55,840.44,385.01z"/>
		<path d="M988.08,320.02c-1.72,5.18-3.92,11.09-6.5,17.72s-5.09,13.15-7.54,19.55c-2.39,6.4-4.48,12.18-6.13,17.35
			c-1.65,5.18-2.51,8.89-2.51,11.15c0,0.79,0.43,1.22,1.23,1.22c1.47,0,3.68-0.85,6.62-2.62c2.94-1.71,6.32-3.96,10.12-6.76
			s7.79-5.85,11.96-9.2c4.17-3.35,8.16-6.64,11.96-9.86c3.8-3.23,7.24-6.21,10.36-8.89c3.07-2.68,5.4-4.63,7.05-5.97
			c1.23,1.22,2.64,2.74,4.29,4.57c1.66,1.89,3.25,3.6,4.72,5.18c-2.94,2.92-6.62,6.46-11.04,10.66c-4.41,4.2-9.2,8.46-14.35,12.85
			c-5.15,4.38-10.48,8.77-16.06,13.15s-10.98,8.28-16.25,11.75s-10.18,6.28-14.72,8.4c-4.54,2.14-8.34,3.17-11.4,3.17
			c-2.02,0-4.54-0.67-7.6-2.07c-3.06-1.4-6.01-3.11-8.83-5.18s-5.21-4.32-7.24-6.88c-2.02-2.49-3-5-3-7.37
			c2.02-8.89,3.99-16.69,6.01-23.32c2.02-6.64,3.86-12.31,5.64-17.06c1.72-4.69,3.25-8.52,4.6-11.45c1.35-2.93,2.33-5.12,3-6.58
			c-1.59-0.67-3.13-1.4-4.6-2.2s-2.94-1.58-4.41-2.37c-2.15,2.25-4.54,4.63-7.11,7.19c-2.58,2.56-5.27,5.06-7.91,7.55
			c-2.7,2.49-5.33,5-8.03,7.37s-5.09,4.57-7.24,6.58l-9.63-9.74c3.49-3.35,7.66-7.37,12.51-12.06c4.91-4.69,9.69-9.51,14.35-14.25
			c-3.37-2.01-6.38-3.89-9.01-5.66c-2.7-1.77-4.97-3.41-6.81-4.88c-2.27-1.58-4.29-3.05-6.01-4.38c-0.8-0.43-1.23-1.28-1.23-2.62
			c0-1.46,0.55-3.54,1.72-6.28c1.16-2.74,2.58-5.66,4.29-8.77c1.72-3.11,3.62-6.34,5.64-9.57s3.92-6.21,5.82-8.89
			s3.49-4.81,4.91-6.46c1.41-1.65,2.33-2.49,2.7-2.49c0.25,0,1.16,0.31,2.7,0.97c1.53,0.67,3.19,1.4,4.91,2.31
			c1.72,0.85,3.31,1.83,4.84,2.86c1.47,1.03,2.39,2.01,2.82,2.8c0.12,0.67,0.25,2.07,0.43,4.2c0.12,2.14,0.25,4.69,0.43,7.8
			c5.21,2.68,10.55,5.66,16.06,9.08c5.46,3.41,10.48,6.64,15.02,9.68c5.33,3.47,10.42,7,15.27,10.54c1.72,1.03,2.82,2.37,3.31,3.96
			C988.45,317.47,988.51,318.87,988.08,320.02z"/>
	</g>
	<g id="XMLID_4_">
		<g>
			<path d="M198.05,223.85c-7.17-14.49-32.37-92.64,264.57-92.64c0,0,26.37-40.87,62.97-64.98c35.81-23.51,81.79-30.21,82.71-30.33
				c25.2-3.47,209.27-19.61,255.01,85.27c0,0,159.85,13.09,180.94,104.45c-22.69-63.4-201.73-78.63-201.73-78.63
				c-18.46-67.24-202.64-66.2-202.64-66.2c-106.32-1.03-163.65,75.27-163.65,75.27c-298.66,8.95-276.28,67.18-276.28,67.18
				L198.05,223.85z"/>
		</g>
		<g>
			<path class="st0" d="M1044.31,225.8c1.41,6.4,2.21,13.15,2.21,20.34"/>
			<path class="st0" d="M199.39,226.17c0,0-0.55-0.79-1.29-2.31c-7.17-14.49-32.37-92.64,264.57-92.64c0,0,26.37-40.87,62.97-64.98
				c35.81-23.51,81.79-30.21,82.71-30.33c25.2-3.47,209.27-19.61,255.01,85.27c0,0,159.85,13.09,180.94,104.45"/>
			<path class="st0" d="M200.01,223.25c0,0-22.38-58.23,276.28-67.18c0,0,57.27-76.38,163.65-75.27c0,0,184.13-1.03,202.64,66.2
				c0,0,179.04,15.23,201.73,78.63c0,0.06,0,0.12,0.06,0.12c1.66,4.81,2.45,9.92,2.21,15.35"/>
		</g>
	</g>
	<path class="st0" d="M209.63,285.73"/>
	<g id="XMLID_2_">
		<g>
			<polygon points="234.16,84.75 209.63,213.74 166.71,437.99 129.92,444.08 203.5,72.56 			"/>
		</g>
		<g>
			<polygon class="st0" points="203.5,72.56 129.92,444.08 166.71,437.99 209.63,213.74 234.16,84.75 			"/>
		</g>
	</g>
	<g id="XMLID_3_">
		<g>
			<polygon points="203.5,218.74 393.58,565.89 350.66,584.17 200.44,258.32 			"/>
		</g>
		<g>
			<polygon class="st0" points="393.58,565.89 203.5,218.74 200.44,258.32 350.66,584.17 			"/>
		</g>
	</g>
	<g class="st1">
		<path d="M386.81,644.87c4.51-7.8,9.28-16.66,14.3-26.6c5.02-9.94,10.13-20.61,15.32-32.04s10.37-23.48,15.55-36.16
			c5.18-12.68,10.18-25.7,15-39.04c4.82-13.34,9.38-26.91,13.67-40.73c4.29-13.81,8.15-27.54,11.56-41.17
			c2.56,2.42,5.24,4.83,8.02,7.21c2.78,2.38,5.5,4.72,8.15,7.01c2.65,2.29,5.15,4.54,7.49,6.75c2.34,2.21,4.31,4.27,5.91,6.17
			c-3.18,9.44-6.89,19.4-11.12,29.85c-4.23,10.46-8.72,21.09-13.47,31.89c-4.75,10.81-9.66,21.55-14.72,32.23
			c-5.06,10.68-10.04,20.92-14.93,30.73c-4.89,9.81-9.55,18.98-13.97,27.51s-8.36,16.05-11.83,22.53c5.27-0.04,11.5-0.06,18.71-0.07
			c7.2-0.01,15.02,0,23.45,0.03c8.43,0.03,17.3,0.1,26.61,0.21c9.31,0.11,18.71,0.26,28.2,0.46c-1.39,1.93-3,4.04-4.83,6.31
			c-1.83,2.28-3.77,4.63-5.81,7.04c-2.05,2.41-4.14,4.78-6.27,7.11c-2.14,2.33-4.25,4.5-6.34,6.52c-7.91-0.38-15.53-0.89-22.87-1.54
			c-7.34-0.65-14.44-1.4-21.29-2.27c-6.86-0.87-13.56-1.76-20.11-2.67c-6.55-0.92-13.03-1.83-19.45-2.74
			c-0.96,1.75-1.71,3.02-2.28,3.81c-0.57,0.79-0.81,1.1-0.72,0.92L386.81,644.87z"/>
		<path d="M628.52,602.73c-8.03,7.91-15.6,14.55-22.72,19.92c-7.12,5.37-13.92,9.7-20.39,12.97c-6.48,3.27-12.67,5.63-18.59,7.07
			c-5.92,1.44-11.69,2.18-17.31,2.21c-2.37,0.02-5.01-0.84-7.92-2.56c-2.91-1.73-5.63-3.82-8.15-6.29
			c-2.52-2.47-4.62-5.05-6.31-7.74c-1.69-2.69-2.54-5-2.55-6.92c-0.05-7.15,0.89-13.72,2.82-19.71c1.93-5.99,4.51-11.39,7.72-16.21
			c3.22-4.82,6.9-9.08,11.04-12.77c4.14-3.69,8.47-6.78,12.98-9.25c4.51-2.47,8.99-4.34,13.46-5.59c4.47-1.25,8.59-1.89,12.37-1.92
			c2.72-0.02,5.43,0.75,8.12,2.3c2.69,1.55,5.14,3.45,7.35,5.71c2.21,2.25,4.01,4.62,5.39,7.09c1.38,2.48,2.07,4.63,2.09,6.46
			c0.02,2.97-1.21,6.01-3.69,9.12c-2.48,3.12-5.99,6.3-10.54,9.56c-4.54,3.26-10.01,6.59-16.4,9.99
			c-6.39,3.41-13.43,6.83-21.14,10.29c-0.25,2.1-0.37,4.15-0.35,6.15c0.02,2.71,0.63,4.53,1.82,5.48c1.19,0.95,3.41,1.42,6.66,1.39
			c5.8-0.04,11.26-1.04,16.38-2.99c5.12-1.95,10.05-4.47,14.77-7.56c4.72-3.09,9.26-6.61,13.63-10.57c4.36-3.96,8.68-7.96,12.96-12
			L628.52,602.73z M581.91,570.35c-1.76,0.01-3.68,0.96-5.78,2.85c-2.09,1.89-4.18,4.37-6.27,7.44c-2.09,3.07-4.08,6.59-5.98,10.58
			c-1.9,3.98-3.54,8.12-4.92,12.4c3.23-2.12,6.4-4.36,9.5-6.74c3.1-2.38,5.87-4.86,8.31-7.45c2.44-2.59,4.4-5.24,5.87-7.96
			c1.47-2.71,2.2-5.42,2.18-8.13c-0.01-0.79-0.25-1.48-0.74-2.09C583.6,570.64,582.88,570.34,581.91,570.35z"/>
		<path d="M659.12,571.51c-1.03,2.8-2.07,5.64-3.1,8.53c-1.03,2.89-2.07,5.86-3.1,8.92c5.49-6.32,10.21-11.48,14.18-15.48
			c3.97-4,7.33-7.14,10.08-9.43c2.75-2.29,4.98-3.85,6.69-4.69c1.71-0.84,3.04-1.26,4.01-1.27c1.14-0.01,2.86,0.55,5.15,1.67
			c2.29,1.12,4.61,2.5,6.95,4.14c2.34,1.64,4.37,3.33,6.1,5.06c1.73,1.73,2.59,3.25,2.6,4.56c0,0.26-0.04,0.59-0.13,0.98
			c-0.08,0.39-0.21,0.9-0.38,1.51c-0.69,2.19-1.57,4.77-2.65,7.74c-1.08,2.97-2.22,6.06-3.43,9.25c-1.21,3.19-2.41,6.38-3.62,9.58
			c-1.21,3.19-2.28,6.19-3.23,8.99c-0.95,2.8-1.72,5.25-2.32,7.34c-0.6,2.1-0.9,3.63-0.89,4.59c0,0.52,0.27,0.78,0.8,0.78
			c0.97-0.01,2.41-0.58,4.33-1.73c1.92-1.15,4.13-2.65,6.62-4.5s5.09-3.87,7.8-6.07c2.71-2.2,5.3-4.38,7.79-6.53
			c2.49-2.15,4.73-4.11,6.74-5.87c2.01-1.76,3.54-3.08,4.58-3.96c0.88,0.78,1.86,1.78,2.92,2.99c1.06,1.22,2.08,2.34,3.05,3.38
			c-1.92,1.93-4.32,4.28-7.2,7.05c-2.88,2.77-6,5.6-9.36,8.51c-3.36,2.9-6.85,5.81-10.48,8.71c-3.62,2.9-7.14,5.5-10.55,7.79
			s-6.6,4.15-9.58,5.56c-2.98,1.42-5.47,2.13-7.49,2.15c-1.32,0.01-2.99-0.44-5.02-1.34c-2.03-0.9-3.99-2.02-5.89-3.36
			c-1.9-1.34-3.51-2.83-4.84-4.48c-1.33-1.65-2-3.26-2.01-4.83c0.77-3.58,1.81-7.65,3.14-12.19c1.33-4.54,2.77-9.2,4.31-13.97
			c1.55-4.76,3.16-9.49,4.84-14.17c1.68-4.68,3.3-8.99,4.85-12.92l-0.26,0.26c-1.66,2.02-4.03,4.67-7.12,7.97
			c-3.09,3.29-6.6,7.51-10.52,12.64s-8.04,11.31-12.38,18.54c-4.34,7.23-8.58,15.79-12.73,25.67c-0.52,1.22-1,2.19-1.43,2.89
			c-0.44,0.7-1.27,1.06-2.5,1.06c-1.49,0.01-3.19-0.39-5.08-1.21c-1.89-0.82-3.83-1.89-5.82-3.23c-1.99-1.34-3.97-2.83-5.96-4.47
			c-1.99-1.64-3.78-3.29-5.37-4.94c0-0.52,0.23-2.01,0.69-4.45c0.47-2.44,1.13-5.52,1.98-9.24c0.85-3.71,1.92-7.95,3.2-12.72
			c1.28-4.76,2.74-9.77,4.37-15.01c1.63-5.25,3.42-10.6,5.35-16.07c1.94-5.46,4.03-10.74,6.28-15.81c3.7,1.72,7.82,3.83,12.36,6.32
			C651.02,565.19,655.23,568.13,659.12,571.51z"/>
		<path d="M734.82,591.52c2.57-2.46,5.14-5.14,7.72-8.04c2.57-2.9,4.96-6.01,7.18-9.34c2.21-3.33,3.97-6.92,5.26-10.77
			c0.34-2.01,0.87-4.13,1.6-6.36s1.55-4.26,2.46-6.1c0.91-1.84,1.8-3.37,2.67-4.6c0.87-1.23,1.65-1.84,2.36-1.85
			c1.06,0.6,2.65,1.75,4.77,3.43c2.12,1.69,4.24,3.48,6.36,5.39c2.12,1.91,4,3.66,5.64,5.26c1.63,1.6,2.46,2.58,2.46,2.93
			c-1.03,4.02-1.51,7.65-1.44,10.87c0.07,3.23,0.35,6.41,0.86,9.55c0.5,3.14,1.05,6.47,1.65,10c0.59,3.53,0.91,7.61,0.94,12.23
			c0.02,2.79-0.42,6-1.31,9.63c-0.9,3.63-2.48,6.89-4.74,9.78c4.46-2.65,8.87-5.62,13.24-8.93c4.37-3.3,8.25-6.4,11.66-9.31
			c4.01-3.43,7.85-6.86,11.52-10.29l5.97,6.37c-2.88,2.73-6,5.63-9.36,8.7c-3.36,3.08-6.85,6.11-10.47,9.1
			c-3.63,2.99-7.32,5.85-11.07,8.58c-3.76,2.73-7.47,5.16-11.15,7.28c-3.67,2.12-7.22,3.8-10.63,5.05c-3.42,1.24-6.62,1.88-9.6,1.9
			c-2.55,0.02-5.36-0.57-8.44-1.77c-3.08-1.2-5.99-2.66-8.73-4.39c-2.74-1.72-5.12-3.54-7.15-5.45c-2.03-1.9-3.23-3.51-3.59-4.82
			c0-0.17,0.17-0.55,0.52-1.12c0.35-0.57,0.76-1.16,1.24-1.78c0.48-0.61,0.96-1.16,1.44-1.65c0.48-0.48,0.85-0.73,1.11-0.73
			c0.53,0,1.58,0.38,3.17,1.16c1.59,0.77,4.22,1.15,7.91,1.12c2.02-0.01,3.75-0.55,5.19-1.61c1.44-1.06,2.64-2.46,3.59-4.21
			c0.95-1.75,1.64-3.76,2.06-6.03c0.42-2.27,0.63-4.67,0.61-7.2c-0.03-3.66-0.23-7.21-0.6-10.66c-0.38-3.44-0.8-6.78-1.26-10
			c-1.48,1.76-3.18,3.6-5.1,5.53c-1.92,1.93-3.86,3.84-5.82,5.73c-1.96,1.89-3.93,3.74-5.89,5.54c-1.96,1.8-3.73,3.41-5.3,4.81
			l-6.37-6.37C729.95,596.18,732.24,593.98,734.82,591.52z"/>
		<path d="M850.79,570.16c-1.04,2.71-2.07,5.51-3.1,8.4c-1.03,2.89-2.02,5.82-2.97,8.79c5.49-6.58,10.04-11.85,13.65-15.8
			c3.62-3.95,6.62-7.03,9.02-9.22c2.4-2.2,4.39-3.74,5.96-4.62c1.58-0.88,3.02-1.55,4.33-1.99c0.79-0.01,2.13,0.42,4.03,1.28
			c1.89,0.86,3.92,1.92,6.08,3.16c2.16,1.25,4.21,2.54,6.15,3.88c1.94,1.34,3.31,2.44,4.11,3.31c0.71,0.69,0.8,1.7,0.29,3.01
			c-1.03,2.8-2.05,5.62-3.04,8.46c-0.99,2.84-1.96,5.75-2.9,8.72c5.83-6.76,10.72-12.18,14.64-16.27c3.92-4.08,7.13-7.22,9.62-9.42
			c2.49-2.2,4.43-3.65,5.83-4.36c1.4-0.71,2.5-1.06,3.29-1.07c1.14-0.01,2.86,0.55,5.15,1.67c2.29,1.12,4.61,2.5,6.95,4.14
			c2.34,1.64,4.37,3.33,6.1,5.06c1.73,1.73,2.59,3.25,2.6,4.56c0,0.26-0.04,0.59-0.13,0.98c-0.09,0.39-0.21,0.9-0.38,1.51
			c-0.69,2.19-1.57,4.77-2.65,7.74c-1.08,2.97-2.22,6.06-3.43,9.25c-1.21,3.19-2.41,6.38-3.62,9.58c-1.21,3.19-2.28,6.19-3.23,8.99
			c-0.95,2.8-1.72,5.25-2.32,7.34c-0.6,2.1-0.9,3.63-0.89,4.59c0,0.52,0.27,0.78,0.8,0.78c0.96-0.01,2.41-0.58,4.33-1.73
			c1.92-1.15,4.13-2.65,6.62-4.5c2.49-1.85,5.09-3.87,7.8-6.08c2.71-2.2,5.3-4.38,7.79-6.53c2.49-2.15,4.73-4.11,6.74-5.87
			c2.01-1.76,3.54-3.08,4.58-3.96c0.8,0.78,1.75,1.78,2.85,2.99c1.11,1.21,2.14,2.34,3.12,3.38c-1.92,1.93-4.32,4.28-7.2,7.05
			c-2.88,2.77-6,5.6-9.36,8.51c-3.36,2.9-6.85,5.81-10.48,8.71c-3.63,2.9-7.14,5.5-10.55,7.79c-3.41,2.29-6.6,4.15-9.58,5.56
			c-2.98,1.42-5.52,2.13-7.63,2.15c-1.32,0.01-2.99-0.44-5.02-1.34c-2.03-0.9-3.97-2.02-5.82-3.36c-1.85-1.34-3.45-2.83-4.77-4.48
			c-1.33-1.65-2-3.26-2.01-4.83c0.77-3.58,1.79-7.65,3.08-12.19c1.29-4.54,2.7-9.2,4.25-13.97c1.55-4.76,3.16-9.46,4.84-14.1
			c1.68-4.63,3.3-8.92,4.85-12.86c-1.74,2.11-4.05,4.65-6.93,7.64c-2.88,2.99-6.14,6.91-9.8,11.78
			c-3.65,4.87-7.56,10.89-11.73,18.07c-4.16,7.18-8.32,15.94-12.46,26.26c-0.51,1.75-1.78,2.63-3.8,2.64
			c-1.05,0.01-2.35-0.18-3.89-0.56c-1.54-0.38-3.17-0.98-4.89-1.8c-1.72-0.82-3.48-1.83-5.29-3.04c-1.81-1.21-3.51-2.68-5.1-4.41
			c0-0.61,0.31-2.47,0.95-5.57c0.64-3.1,1.57-7.05,2.81-11.86c1.24-4.81,2.71-10.18,4.43-16.13c1.71-5.94,3.65-12.06,5.8-18.36
			c-2.09,2.28-4.71,5.2-7.84,8.76c-3.14,3.56-6.49,7.85-10.05,12.89c-3.57,5.04-7.21,10.89-10.94,17.55
			c-3.73,6.66-7.23,14.18-10.51,22.58c-0.51,1.84-1.74,2.76-3.67,2.77c-1.5,0.01-3.19-0.39-5.08-1.21
			c-1.89-0.82-3.83-1.89-5.82-3.23c-1.99-1.34-3.97-2.83-5.96-4.47c-1.99-1.64-3.78-3.29-5.37-4.93c0-0.52,0.23-2.01,0.69-4.45
			c0.47-2.45,1.13-5.53,1.98-9.24c0.85-3.71,1.9-7.95,3.14-12.72c1.24-4.76,2.68-9.77,4.31-15.01c1.63-5.25,3.44-10.6,5.42-16.07
			c1.98-5.46,4.09-10.74,6.34-15.81c3.7,1.72,7.82,3.83,12.36,6.32C842.82,563.85,846.99,566.78,850.79,570.16z"/>
		<path d="M1042.7,620.5c0,0.52,0.27,0.78,0.8,0.78c0.79,0,2.1-0.58,3.94-1.73c1.84-1.15,3.93-2.6,6.29-4.36
			c2.36-1.76,4.87-3.74,7.53-5.94c2.66-2.2,5.22-4.36,7.66-6.47c2.44-2.11,4.65-4.04,6.61-5.8c1.96-1.76,3.47-3.12,4.52-4.09
			c0.8,0.78,1.79,1.82,2.99,3.12c1.19,1.3,2.28,2.47,3.25,3.51c-2.1,1.93-4.6,4.29-7.53,7.05c-2.92,2.77-6.07,5.65-9.42,8.64
			c-3.36,2.99-6.83,5.96-10.41,8.91c-3.58,2.95-7.07,5.57-10.48,7.86c-3.41,2.29-6.65,4.17-9.71,5.63c-3.07,1.46-5.74,2.2-8.02,2.22
			c-1.58,0.01-3.32-0.28-5.21-0.88c-1.89-0.6-3.63-1.44-5.22-2.52c-1.59-1.08-2.92-2.36-3.98-3.83s-1.6-3.13-1.62-4.96
			c0-0.7-0.03-1.55-0.08-2.55c-0.05-1,0-2.31,0.17-3.93c0.16-1.61,0.5-3.58,1.01-5.9c0.51-2.31,1.28-5.18,2.31-8.59
			c-2.88,3.08-6.26,6.28-10.14,9.63c-3.88,3.34-7.97,6.51-12.25,9.51c-4.28,3-8.59,5.71-12.92,8.14c-4.33,2.43-8.33,4.27-12.01,5.52
			c-0.44,0.18-0.79,0.27-1.05,0.27c-0.26,0-0.53,0-0.79,0c-0.88,0.01-2.04-0.42-3.5-1.28c-1.46-0.86-2.89-2.01-4.31-3.44
			s-2.63-3.06-3.66-4.88c-1.02-1.83-1.54-3.65-1.55-5.49c0-0.52,0.25-2.27,0.75-5.24c0.51-2.97,1.73-6.75,3.67-11.35
			c1.94-4.59,4.83-9.76,8.65-15.5c3.83-5.74,9.05-11.64,15.68-17.71c3.4-3.08,7.07-5.98,11-8.71c3.32-2.29,7.12-4.63,11.41-7.02
			c4.29-2.39,8.8-4.29,13.53-5.72c0.17,0,0.33-0.04,0.46-0.13c0.13-0.09,0.33-0.04,0.59,0.13c1.06,0.34,2.31,0.88,3.77,1.61
			s2.91,1.51,4.36,2.32c1.45,0.82,2.73,1.64,3.84,2.46c1.1,0.82,1.83,1.49,2.19,2.01c0.09,0.18,0.09,0.31,0,0.39l-0.26,0.26
			c-3.94,2.12-7.65,4.48-11.15,7.08c-3.5,2.6-6.6,5.04-9.3,7.33c-3.14,2.73-6.07,5.41-8.77,8.04c-6.37,6.33-10.76,11.79-13.19,16.38
			c-2.43,4.6-3.63,7.9-3.62,9.91c0.01,1.48,0.63,2.22,1.86,2.21c1.23-0.01,2.78-0.52,4.67-1.54c1.88-1.02,4-2.38,6.36-4.1
			c2.36-1.72,4.96-3.74,7.79-6.08c2.84-2.33,5.78-4.77,8.84-7.32c2.71-2.2,5.32-4.57,7.85-7.12c2.18-2.11,4.45-4.52,6.8-7.25
			c2.35-2.72,4.35-5.48,6-8.29c0-0.09,0.04-0.17,0.13-0.26c0.09-0.09,0.22-0.09,0.4,0c0.97,0.69,2.08,1.84,3.32,3.45
			c1.24,1.61,2.4,3.36,3.46,5.28c1.07,1.91,1.98,3.76,2.74,5.54c0.76,1.78,1.14,3.16,1.15,4.11c-1.99,4.12-3.52,7.86-4.6,11.22
			c-1.08,3.37-1.89,6.32-2.44,8.85c-0.55,2.54-0.89,4.7-1.01,6.49C1042.75,618.17,1042.7,619.54,1042.7,620.5z"/>
		<path d="M1116.9,568.29c-1.03,2.8-2.07,5.64-3.1,8.53c-1.03,2.89-2.07,5.86-3.1,8.92c5.49-6.32,10.21-11.48,14.18-15.48
			c3.97-4,7.33-7.14,10.08-9.43c2.75-2.29,4.98-3.85,6.68-4.69c1.71-0.84,3.04-1.26,4.01-1.27c1.14-0.01,2.86,0.55,5.15,1.67
			c2.29,1.12,4.61,2.5,6.95,4.14c2.34,1.64,4.37,3.33,6.1,5.06c1.72,1.73,2.59,3.25,2.6,4.56c0,0.26-0.04,0.59-0.13,0.98
			c-0.08,0.39-0.21,0.9-0.38,1.51c-0.69,2.19-1.57,4.77-2.65,7.74c-1.08,2.97-2.22,6.06-3.43,9.25c-1.21,3.19-2.41,6.39-3.62,9.58
			c-1.21,3.19-2.28,6.19-3.23,8.99c-0.95,2.8-1.72,5.25-2.32,7.34c-0.6,2.1-0.9,3.63-0.89,4.59c0,0.52,0.27,0.78,0.8,0.78
			c0.96-0.01,2.41-0.58,4.33-1.73c1.92-1.15,4.13-2.65,6.62-4.5s5.09-3.87,7.79-6.07c2.71-2.2,5.3-4.38,7.79-6.53
			c2.49-2.15,4.73-4.11,6.74-5.87c2.01-1.76,3.54-3.08,4.58-3.96c0.88,0.78,1.86,1.78,2.92,2.99c1.06,1.21,2.08,2.34,3.05,3.38
			c-1.92,1.93-4.32,4.28-7.2,7.05c-2.88,2.77-6,5.6-9.36,8.51c-3.36,2.9-6.85,5.81-10.48,8.71c-3.63,2.9-7.14,5.5-10.55,7.79
			c-3.41,2.29-6.6,4.15-9.58,5.56c-2.98,1.42-5.48,2.13-7.49,2.15c-1.32,0.01-2.99-0.44-5.02-1.34c-2.03-0.9-3.99-2.02-5.89-3.36
			c-1.9-1.34-3.51-2.83-4.84-4.48c-1.33-1.65-2-3.26-2.01-4.83c0.76-3.58,1.81-7.65,3.14-12.19c1.33-4.54,2.77-9.2,4.31-13.97
			c1.55-4.76,3.16-9.49,4.84-14.17c1.68-4.68,3.3-8.99,4.85-12.92l-0.26,0.26c-1.65,2.02-4.03,4.67-7.12,7.97
			c-3.09,3.29-6.6,7.5-10.51,12.64c-3.92,5.13-8.04,11.31-12.38,18.54c-4.34,7.23-8.58,15.79-12.73,25.67
			c-0.52,1.22-1,2.19-1.43,2.89c-0.44,0.7-1.27,1.06-2.5,1.06c-1.49,0.01-3.19-0.39-5.08-1.21c-1.89-0.82-3.83-1.89-5.82-3.23
			c-1.99-1.34-3.97-2.83-5.96-4.47c-1.99-1.64-3.78-3.29-5.37-4.94c0-0.52,0.23-2.01,0.69-4.45c0.47-2.45,1.13-5.53,1.98-9.24
			c0.85-3.71,1.92-7.95,3.2-12.72c1.28-4.76,2.74-9.77,4.37-15.01c1.63-5.25,3.42-10.6,5.35-16.07c1.94-5.46,4.03-10.74,6.28-15.81
			c3.7,1.72,7.82,3.83,12.36,6.33C1108.79,561.98,1113.01,564.92,1116.9,568.29z"/>
	</g>
	<path d="M268.43,136.51c0,0-11.34-58.89,67.88-76.56s84.86,58.89,84.86,58.89s-25.45-50.06-76.34-38.25
		C293.88,92.36,288.24,104.11,268.43,136.51z"/>
</g>
</svg>
