<?xml version="1.0" encoding="utf-8"?>
<!-- Generator: Adobe Illustrator 23.0.1, SVG Export Plug-In . SVG Version: 6.00 Build 0)  -->
<svg version="1.1" id="Layer_1" xmlns="http://www.w3.org/2000/svg" xmlns:xlink="http://www.w3.org/1999/xlink" x="0px" y="0px"
	 viewBox="0 0 1366 768" style="enable-background:new 0 0 1366 768;" xml:space="preserve">
<style type="text/css">
	.st0{fill:none;stroke:#000000;stroke-miterlimit:10;}
	.st1{font-family:'Yesteryear-Regular';}
	.st2{font-size:269.7913px;}
</style>
<g>
	<path d="M289.17,202.02"/>
	<path d="M499.66,374.44c0,0.8,0.43,1.23,1.23,1.23c1.47,0,3.68-0.86,6.74-2.64c3-1.72,6.44-3.92,10.3-6.62
		c3.86-2.7,7.97-5.7,12.26-9.01c4.29-3.37,8.34-6.56,12.26-9.75c3.86-3.13,7.36-6.07,10.55-8.71c3.13-2.7,5.52-4.66,7.11-6.01
		c1.23,1.23,2.64,2.76,4.29,4.6c1.66,1.9,3.25,3.62,4.72,5.21c-2.94,2.94-6.68,6.5-11.16,10.61c-4.48,4.17-9.38,8.46-14.65,12.94
		c-5.27,4.48-10.79,8.89-16.43,13.24c-5.7,4.35-11.22,8.22-16.56,11.65c-5.33,3.43-10.36,6.19-15.02,8.34
		c-4.66,2.15-8.58,3.19-11.65,3.19c-2.27,0-4.84-0.67-7.6-2.08c-2.82-1.41-5.46-3.19-7.91-5.4c-2.45-2.21-4.54-4.66-6.19-7.3
		c-1.66-2.7-2.51-5.21-2.51-7.6c0-2.15,0.8-6.25,2.39-12.26s3.56-13.06,5.82-21.09c-6.01,8.15-11.9,15.33-17.66,21.58
		c-5.76,6.19-11.04,11.53-15.82,15.94c-4.78,4.41-9.01,7.97-12.63,10.73s-6.32,4.72-8.03,5.95c-1.04,0.67-2.33,1.16-3.8,1.53
		c-1.47,0.31-2.82,0.49-3.99,0.49c-2.51,0-5.33-0.8-8.4-2.33s-5.89-3.43-8.52-5.7c-2.58-2.27-4.84-4.84-6.62-7.6
		c-1.78-2.82-2.7-5.46-2.7-8.03c0-2.94,0.98-7.85,2.88-14.65c1.96-6.81,4.54-14.96,7.85-24.46c3.25-9.5,7.11-20.11,11.53-31.88
		s9.14-24.16,14.23-37.16c0.25-0.67,0.49-0.98,0.67-0.92c0.18,0.06,0.55,0.12,1.1,0.12c2.51,0.43,6.01,1.41,10.42,3.13
		c4.41,1.66,8.71,3.49,12.94,5.52c4.23,2.02,7.85,3.92,10.91,5.7c3.07,1.78,4.6,3.07,4.6,3.74c-0.43,0.92-1.41,3.13-3.13,6.62
		c-1.66,3.49-3.62,7.66-5.82,12.57c-2.21,4.91-4.54,10.18-6.99,15.88c-2.45,5.7-4.72,11.16-6.81,16.37
		c-2.08,5.21-3.8,9.93-5.09,14.16c-1.35,4.23-2.02,7.3-2.02,9.32c0,0.55,0.25,0.8,0.8,0.8c1.04,0,3.43-1.41,7.05-4.29
		c3.62-2.88,8.03-7.42,13.37-13.55c5.27-6.13,11.28-14.1,17.97-23.79c6.68-9.69,13.61-21.4,20.85-35.01l5.64-15.88
		c0.43-1.04,1.29-1.59,2.64-1.59c0.92,0,2.94,0.92,6.13,2.7c3.13,1.78,6.5,3.86,10.06,6.19c3.56,2.33,6.74,4.66,9.5,7.05
		c2.82,2.33,4.35,3.99,4.6,4.91c0,0.43-0.06,1.1-0.18,2.08s-0.31,1.84-0.61,2.51c-1.35,3.62-2.88,7.85-4.6,12.75
		s-3.49,9.99-5.33,15.27c-1.78,5.27-3.56,10.61-5.33,15.94c-1.72,5.33-3.31,10.36-4.72,14.96c-1.41,4.6-2.58,8.71-3.43,12.26
		C500.09,370.27,499.66,372.84,499.66,374.44z"/>
	<path d="M613.77,295.16c-1.59,4.17-3.19,8.46-4.84,12.88c-1.59,4.41-3.13,8.89-4.6,13.43c8.4-10.06,15.39-18.09,20.97-24.1
		c5.52-6.01,10.18-10.73,13.86-14.04c3.68-3.31,6.74-5.7,9.14-7.05s4.6-2.33,6.62-3c1.23,0,3.25,0.67,6.13,2.02
		c2.88,1.35,5.95,3,9.2,4.91c3.25,1.96,6.38,3.92,9.32,6.01c2.94,2.08,5.03,3.8,6.19,5.09c1.04,1.04,1.23,2.64,0.43,4.6
		c-1.59,4.29-3.19,8.58-4.72,12.94c-1.53,4.35-3.07,8.83-4.54,13.37c8.95-10.3,16.43-18.58,22.44-24.77s10.91-10.98,14.72-14.35
		c3.8-3.31,6.81-5.58,8.95-6.62c2.15-1.04,3.8-1.59,5.03-1.59c1.72,0,4.35,0.86,7.85,2.64c3.49,1.72,6.99,3.86,10.55,6.44
		c3.56,2.51,6.62,5.15,9.2,7.85c2.58,2.7,3.92,5.03,3.92,7.05c0,0.43-0.06,0.92-0.18,1.53c-0.12,0.61-0.31,1.35-0.61,2.33
		c-1.04,3.37-2.45,7.3-4.11,11.83c-1.66,4.54-3.43,9.26-5.33,14.16c-1.9,4.91-3.74,9.75-5.64,14.65c-1.9,4.91-3.56,9.44-5.03,13.73
		c-1.47,4.29-2.7,8.03-3.62,11.22s-1.41,5.58-1.41,7.05c0,0.8,0.43,1.23,1.23,1.23c1.47,0,3.68-0.86,6.62-2.64
		c2.94-1.72,6.32-3.99,10.12-6.81c3.8-2.82,7.79-5.89,11.96-9.26c4.17-3.37,8.15-6.68,11.96-9.93c3.8-3.25,7.24-6.25,10.36-8.95
		c3.07-2.7,5.4-4.66,7.05-6.01c1.23,1.23,2.64,2.76,4.29,4.6c1.66,1.9,3.25,3.62,4.72,5.21c-2.94,2.94-6.62,6.5-11.04,10.73
		c-4.41,4.23-9.2,8.52-14.35,12.94c-5.15,4.41-10.48,8.83-16.06,13.24s-10.91,8.34-16.13,11.83c-5.21,3.49-10.12,6.32-14.65,8.46
		s-8.4,3.19-11.65,3.19c-2.02,0-4.54-0.67-7.6-2.08c-3.07-1.41-6.01-3.13-8.83-5.21c-2.82-2.08-5.21-4.35-7.24-6.93
		c-2.02-2.51-3-5.03-3-7.42c1.23-5.46,2.82-11.71,4.84-18.64c2.02-6.93,4.23-14.1,6.62-21.4c2.39-7.3,4.91-14.47,7.54-21.58
		c2.58-7.11,5.09-13.67,7.54-19.68c-2.7,3.19-6.19,7.11-10.61,11.65c-4.41,4.54-9.44,10.55-15.02,17.97
		c-5.64,7.42-11.65,16.62-18.03,27.59c-6.44,10.98-12.81,24.34-19.25,40.16c-0.8,2.7-2.76,3.99-5.82,3.99
		c-1.59,0-3.56-0.31-5.95-0.92c-2.33-0.61-4.84-1.53-7.42-2.82c-2.64-1.29-5.27-2.82-8.03-4.72c-2.76-1.9-5.33-4.17-7.73-6.81
		c0-0.92,0.49-3.8,1.53-8.52c0.98-4.72,2.45-10.79,4.41-18.15c1.96-7.36,4.23-15.57,6.93-24.71c2.7-9.07,5.7-18.46,9.01-28.08
		c-3.19,3.49-7.24,7.91-12.02,13.37c-4.84,5.4-9.99,11.96-15.45,19.68c-5.46,7.66-11.1,16.62-16.86,26.79s-11.16,21.71-16.25,34.52
		c-0.8,2.82-2.7,4.23-5.64,4.23c-2.27,0-4.84-0.61-7.73-1.9c-2.88-1.29-5.82-2.94-8.83-5.03c-3-2.08-6.01-4.41-9.01-6.93
		c-3-2.51-5.7-5.09-8.09-7.6c0-0.8,0.37-3.07,1.1-6.81c0.74-3.74,1.78-8.46,3.13-14.16c1.35-5.7,3-12.2,4.91-19.5
		c1.96-7.3,4.17-14.96,6.74-22.99c2.51-8.03,5.33-16.25,8.4-24.59s6.38-16.43,9.81-24.16c5.64,2.7,11.9,5.95,18.76,9.81
		C601.75,285.41,608.06,289.95,613.77,295.16z"/>
	<path d="M905.44,374.44c0,0.8,0.43,1.23,1.23,1.23c1.23,0,3.19-0.86,6.01-2.64c2.82-1.72,6.01-3.92,9.63-6.62
		c3.62-2.7,7.48-5.7,11.53-9.01c4.11-3.37,7.97-6.62,11.71-9.81c3.74-3.19,7.11-6.13,10.12-8.83c3-2.7,5.33-4.72,6.93-6.19
		c1.23,1.23,2.7,2.82,4.54,4.84c1.78,2.02,3.43,3.8,4.91,5.4c-3.19,2.94-7.05,6.5-11.53,10.73c-4.48,4.23-9.32,8.58-14.47,13.12
		c-5.15,4.54-10.48,9.07-15.94,13.55c-5.46,4.48-10.85,8.46-16.06,11.96c-5.21,3.49-10.18,6.32-14.84,8.52
		c-4.66,2.21-8.77,3.31-12.26,3.31c-2.39,0-5.03-0.49-7.91-1.41c-2.88-0.92-5.52-2.27-7.91-3.92c-2.39-1.66-4.41-3.62-6.01-5.95
		c-1.59-2.27-2.39-4.84-2.39-7.6c0-1.04-0.06-2.39-0.12-3.92c-0.06-1.53,0-3.56,0.31-6.01c0.25-2.45,0.8-5.46,1.59-9.01
		c0.8-3.56,2.02-7.91,3.62-13.12c-4.41,4.66-9.63,9.57-15.57,14.65c-5.95,5.09-12.2,9.93-18.76,14.47
		c-6.56,4.54-13.12,8.65-19.74,12.32c-6.62,3.68-12.75,6.44-18.33,8.34c-0.67,0.25-1.23,0.43-1.59,0.43c-0.37,0-0.8,0-1.23,0
		c-1.35,0-3.13-0.67-5.33-2.02s-4.35-3.13-6.5-5.33s-3.99-4.72-5.52-7.54c-1.53-2.82-2.33-5.64-2.33-8.46c0-0.8,0.43-3.49,1.23-8.03
		s2.7-10.36,5.7-17.35c3-7.05,7.48-14.9,13.37-23.67c5.89-8.77,13.92-17.78,24.1-26.98c5.21-4.66,10.85-9.07,16.86-13.24
		c5.09-3.49,10.91-7.05,17.47-10.61c6.56-3.62,13.43-6.5,20.66-8.65c0.25,0,0.49-0.06,0.67-0.18c0.18-0.12,0.49-0.06,0.92,0.18
		c1.59,0.55,3.49,1.35,5.7,2.51c2.21,1.16,4.41,2.33,6.62,3.62c2.21,1.29,4.17,2.51,5.82,3.8c1.66,1.29,2.76,2.33,3.31,3.13
		c0.12,0.25,0.12,0.49,0,0.61l-0.43,0.43c-6.01,3.19-11.71,6.81-17.05,10.73c-5.33,3.92-10.12,7.66-14.23,11.16
		c-4.84,4.17-9.32,8.22-13.43,12.26c-9.75,9.63-16.49,17.97-20.23,25.02s-5.64,12.08-5.64,15.14c0,2.27,0.92,3.43,2.82,3.43
		s4.23-0.8,7.11-2.33c2.88-1.53,6.13-3.62,9.75-6.19c3.62-2.64,7.6-5.7,11.96-9.26c4.35-3.56,8.83-7.24,13.55-11.16
		c4.17-3.37,8.15-6.93,12.02-10.85c3.31-3.19,6.81-6.87,10.42-11.04c3.62-4.17,6.68-8.34,9.2-12.63c0-0.12,0.06-0.25,0.18-0.43
		c0.12-0.12,0.31-0.12,0.61,0c1.47,1.04,3.13,2.82,5.03,5.33c1.9,2.45,3.62,5.21,5.21,8.15c1.59,2.94,2.94,5.76,4.11,8.52
		c1.16,2.76,1.72,4.84,1.72,6.32c-3.07,6.32-5.46,12.02-7.11,17.17c-1.66,5.15-2.94,9.69-3.8,13.55c-0.86,3.86-1.41,7.17-1.59,9.93
		C905.56,370.88,905.44,372.97,905.44,374.44z"/>
	<path d="M1053.08,309.01c-1.72,5.21-3.92,11.16-6.5,17.84c-2.58,6.68-5.09,13.24-7.54,19.68c-2.39,6.44-4.48,12.26-6.13,17.47
		s-2.51,8.95-2.51,11.22c0,0.8,0.43,1.23,1.23,1.23c1.47,0,3.68-0.86,6.62-2.64c2.94-1.72,6.32-3.99,10.12-6.81
		s7.79-5.89,11.96-9.26c4.17-3.37,8.16-6.68,11.96-9.93c3.8-3.25,7.24-6.25,10.36-8.95c3.07-2.7,5.4-4.66,7.05-6.01
		c1.23,1.23,2.64,2.76,4.29,4.6c1.66,1.9,3.25,3.62,4.72,5.21c-2.94,2.94-6.62,6.5-11.04,10.73c-4.41,4.23-9.2,8.52-14.35,12.94
		c-5.15,4.41-10.48,8.83-16.06,13.24s-10.98,8.34-16.25,11.83c-5.27,3.49-10.18,6.32-14.72,8.46c-4.54,2.15-8.34,3.19-11.4,3.19
		c-2.02,0-4.54-0.67-7.6-2.08s-6.01-3.13-8.83-5.21s-5.21-4.35-7.24-6.93c-2.02-2.51-3-5.03-3-7.42c2.02-8.95,3.99-16.8,6.01-23.48
		c2.02-6.68,3.86-12.39,5.64-17.17c1.72-4.72,3.25-8.58,4.6-11.53s2.33-5.15,3-6.62c-1.59-0.67-3.13-1.41-4.6-2.21
		c-1.47-0.8-2.94-1.59-4.41-2.39c-2.15,2.27-4.54,4.66-7.11,7.24c-2.58,2.58-5.27,5.09-7.91,7.6c-2.7,2.51-5.33,5.03-8.03,7.42
		c-2.7,2.39-5.09,4.6-7.24,6.62l-9.63-9.81c3.49-3.37,7.66-7.42,12.51-12.14c4.91-4.72,9.69-9.57,14.35-14.35
		c-3.37-2.02-6.38-3.92-9.01-5.7c-2.7-1.78-4.97-3.43-6.81-4.91c-2.27-1.59-4.29-3.07-6.01-4.41c-0.8-0.43-1.23-1.29-1.23-2.64
		c0-1.47,0.55-3.56,1.72-6.32c1.16-2.76,2.58-5.7,4.29-8.83c1.72-3.13,3.62-6.38,5.64-9.63c2.02-3.25,3.92-6.25,5.82-8.95
		c1.9-2.7,3.49-4.84,4.91-6.5c1.41-1.66,2.33-2.51,2.7-2.51c0.25,0,1.16,0.31,2.7,0.98c1.53,0.67,3.19,1.41,4.91,2.33
		c1.72,0.86,3.31,1.84,4.84,2.88c1.47,1.04,2.39,2.02,2.82,2.82c0.12,0.67,0.25,2.08,0.43,4.23c0.12,2.15,0.25,4.72,0.43,7.85
		c5.21,2.7,10.55,5.7,16.06,9.14c5.46,3.43,10.48,6.68,15.02,9.75c5.33,3.49,10.42,7.05,15.27,10.61c1.72,1.04,2.82,2.39,3.31,3.99
		C1053.45,306.44,1053.51,307.85,1053.08,309.01z"/>
</g>
<g id="XMLID_4_">
	<g>
		<path d="M263.05,212.2c-7.17-14.59-32.37-93.26,264.57-93.26c0,0,26.37-41.14,62.97-65.42c35.81-23.67,81.79-30.41,82.71-30.53
			c25.2-3.49,209.27-19.74,255.01,85.84c0,0,159.85,13.18,180.94,105.15c-22.69-63.83-201.73-79.16-201.73-79.16
			c-18.46-67.69-202.64-66.65-202.64-66.65c-106.32-1.04-163.65,75.78-163.65,75.78c-298.66,9.01-276.28,67.63-276.28,67.63
			L263.05,212.2z"/>
	</g>
	<g>
		<path class="st0" d="M1109.31,214.16c1.41,6.44,2.21,13.24,2.21,20.48"/>
		<path class="st0" d="M264.39,214.53c0,0-0.55-0.8-1.29-2.33c-7.17-14.59-32.37-93.26,264.57-93.26c0,0,26.37-41.14,62.97-65.42
			c35.81-23.67,81.79-30.41,82.71-30.53c25.2-3.49,209.27-19.74,255.01,85.84c0,0,159.85,13.18,180.94,105.15"/>
		<path class="st0" d="M265.01,211.59c0,0-22.38-58.62,276.28-67.63c0,0,57.27-76.89,163.65-75.78c0,0,184.13-1.04,202.64,66.65
			c0,0,179.04,15.33,201.73,79.16c0,0.06,0,0.12,0.06,0.12c1.66,4.84,2.45,9.99,2.21,15.45"/>
	</g>
</g>
<path class="st0" d="M274.63,274.49"/>
<g id="XMLID_2_">
	<g>
		<polygon points="299.16,72.16 274.63,202.02 231.71,427.78 194.92,433.91 268.5,59.89 		"/>
	</g>
	<g>
		<polygon class="st0" points="268.5,59.89 194.92,433.91 231.71,427.78 274.63,202.02 299.16,72.16 		"/>
	</g>
</g>
<g id="XMLID_3_">
	<g>
		<polygon points="268.5,207.05 458.58,556.54 415.66,574.94 265.44,246.9 		"/>
	</g>
	<g>
		<polygon class="st0" points="458.58,556.54 268.5,207.05 265.44,246.9 415.66,574.94 		"/>
	</g>
</g>
<text transform="matrix(1 -7.066658e-03 7.066658e-03 1 471.7726 627.6013)" class="st1 st2">Lensman</text>
<path d="M333.43,124.27c0,0-11.34-59.29,67.88-77.07s84.86,59.29,84.86,59.29s-25.45-50.4-76.34-38.51
	C358.88,79.82,353.24,91.65,333.43,124.27z"/>
</svg>
